{
  "accessors": [
    {
      "bufferView": 1,
      "componentType": 5126,
      "count": 80,
      "max": [
        0.8358299732208252,
        0.90573000907897949,
        0.65628999471664429
      ],
      "min": [
        -0.8358299732208252,
        -0.76591998338699341,
        -1.424280047416687
      ],
      "type": "VEC3"
    },
    {
      "bufferView": 1,
      "byteOffset": 960,
      "componentType": 5126,
      "count": 80,
      "max": [
        1,
        1,
        1
      ],
      "min": [
        -1,
        -1,
        -1
      ],
      "type": "VEC3"
    },
    {
      "bufferView": 0,
      "componentType": 5125,
      "count": 150,
      "max": [
        79
      ],
      "min": [
        0
      ],
      "type": "SCALAR"
    },
    {
      "bufferView": 1,
      "byteOffset": 1920,
      "componentType": 5126,
      "count": 140,
      "max": [
        0.51327997446060181,
        0.3895300030708313,
        -1.0153599977493286
      ],
      "min": [
        -0.51327997446060181,
        -0.21357999742031097,
        -1.5447800159454346
      ],
      "type": "VEC3"
    },
    {
      "bufferView": 1,
      "byteOffset": 3600,
      "componentType": 5126,
      "count": 140,
      "max": [
        0.99996465444564819,
        0.99961799383163452,
        0.91305160522460938
      ],
      "min": [
        -0.99848794937133789,
        -1,
        -0.99791783094406128
      ],
      "type": "VEC3"
    },
    {
      "bufferView": 0,
      "byteOffset": 600,
      "componentType": 5125,
      "count": 180,
      "max": [
        139
      ],
      "min": [
        0
      ],
      "type": "SCALAR"
    },
    {
      "bufferView": 1,
      "byteOffset": 5280,
      "componentType": 5126,
      "count": 85,
      "max": [
        0.38295000791549683,
        0.37817001342773438,
        -1.5344500541687012
      ],
      "min": [
        -0.38295000791549683,
        -0.20483000576496124,
        -2.0972199440002441
      ],
      "type": "VEC3"
    },
    {
      "bufferView": 1,
      "byteOffset": 6300,
      "componentType": 5126,
      "count": 85,
      "max": [
        0.99926567077636719,
        0.98493707180023193,
        1
      ],
      "min": [
        -0.99775874614715576,
        -0.99924951791763306,
        -0.99857091903686523
      ],
      "type": "VEC3"
    },
    {
      "bufferView": 0,
      "byteOffset": 1320,
      "componentType": 5125,
      "count": 219,
      "max": [
        84
      ],
      "min": [
        0
      ],
      "type": "SCALAR"
    },
    {
      "bufferView": 1,
      "byteOffset": 7320,
      "componentType": 5126,
      "count": 40,
      "max": [
        0.34248998761177063,
        0.16287000477313995,
        -2.0901200771331787
      ],
      "min": [
        -0.34305000305175781,
        -0.066160000860691071,
        -2.1625499725341797
      ],
      "type": "VEC3"
    },
    {
      "bufferView": 1,
      "byteOffset": 7800,
      "componentType": 5126,
      "count": 40,
      "max": [
        0.99452012777328491,
        0.91684645414352417,
        -0.10454001277685165
      ],
      "min": [
        -0.99452012777328491,
        -0.98494625091552734,
        -1
      ],
      "type": "VEC3"
    },
    {
      "bufferView": 0,
      "byteOffset": 2196,
      "componentType": 5125,
      "count": 60,
      "max": [
        39
      ],
      "min": [
        0
      ],
      "type": "SCALAR"
    },
    {
      "bufferView": 1,
      "byteOffset": 8280,
      "componentType": 5126,
      "count": 157,
      "max": [
        1.1368299722671509,
        0.95895999670028687,
        3.0493700504302979
      ],
      "min": [
        -1.1368299722671509,
        -1.0669200420379639,
        1.1675900220870972
      ],
      "type": "VEC3"
    },
    {
      "bufferView": 1,
      "byteOffset": 10164,
      "componentType": 5126,
      "count": 157,
      "max": [
        1,
        1,
        0.99450558423995972
      ],
      "min": [
        -1,
        -1,
        -1
      ],
      "type": "VEC3"
    },
    {
      "bufferView": 0,
      "byteOffset": 2436,
      "componentType": 5125,
      "count": 282,
      "max": [
        156
      ],
      "min": [
        0
      ],
      "type": "SCALAR"
    }
  ],
  "asset": {
    "extras": {
      "author": "oillut (https://sketchfab.com/oillut)",
      "license": "CC-BY-4.0 (http://creativecommons.org/licenses/by/4.0/)",
      "source": "https://sketchfab.com/models/3a0b29d5fb8a40b19b0da37755e9b538",
      "title": "Very Low Poly Guy"
    },
    "generator": "Sketchfab-3.18.2",
    "version": "2.0"
  },
  "bufferViews": [
    {
      "buffer": 0,
      "byteLength": 3564,
      "byteOffset": 0,
      "name": "floatBufferViews",
      "target": 34963
    },
    {
      "buffer": 0,
      "byteLength": 12048,
      "byteOffset": 3564,
      "byteStride": 12,
      "name": "floatBufferViews",
      "target": 34962
    }
  ],
  "buffers": [
    {
      "byteLength": 15612,
      "uri": "scene.bin"
    }
  ],
  "materials": [
    {
      "doubleSided": true,
      "emissiveFactor": [
        0,
        0,
        0
      ],
      "name": "Skin",
      "pbrMetallicRoughness": {
        "baseColorFactor": [
          0.80000007149999997,
          0.66458499429999995,
          0.58254802230000002,
          1
        ],
        "metallicFactor": 0,
        "roughnessFactor": 0.59999999999999998
      }
    },
    {
      "doubleSided": true,
      "emissiveFactor": [
        0,
        0,
        0
      ],
      "name": "Shirt",
      "pbrMetallicRoughness": {
        "baseColorFactor": [
          0.019070563003674622,
          0.2425577915280471,
          0.030082291807474088,
          1
        ],
        "metallicFactor": 0,
        "roughnessFactor": 0.59999999999999998
      }
    },
    {
      "doubleSided": true,
      "emissiveFactor": [
        0,
        0,
        0
      ],
      "name": "Pants",
      "pbrMetallicRoughness": {
        "baseColorFactor": [
          0.010353464794007786,
          0.0219305816862174,
          0.23655343407873231,
          1
        ],
        "metallicFactor": 0,
        "roughnessFactor": 0.59999999999999998
      }
    },
    {
      "doubleSided": false,
      "emissiveFactor": [
        0,
        0,
        0
      ],
      "name": "Shoes",
      "pbrMetallicRoughness": {
        "baseColorFactor": [
          0.094441364095999999,
          0.094441364095999999,
          0.094441364095999999,
          1
        ],
        "metallicFactor": 0,
        "roughnessFactor": 0.59999999999999998
      }
    },
    {
      "doubleSided": true,
      "emissiveFactor": [
        0,
        0,
        0
      ],
      "name": "Material.002",
      "pbrMetallicRoughness": {
        "baseColorFactor": [
          0.63489399904404809,
          0.64000006672000087,
          0.16366030219444697,
          1
        ],
        "metallicFactor": 0,
        "roughnessFactor": 0.59999999999999998
      }
    }
  ],
  "meshes": [
    {
      "name": "Cube_0",
      "primitives": [
        {
          "attributes": {
            "NORMAL": 1,
            "POSITION": 0
          },
          "indices": 2,
          "material": 0,
          "mode": 4
        }
      ]
    },
    {
      "name": "Cube_1",
      "primitives": [
        {
          "attributes": {
            "NORMAL": 4,
            "POSITION": 3
          },
          "indices": 5,
          "material": 1,
          "mode": 4
        }
      ]
    },
    {
      "name": "Cube_2",
      "primitives": [
        {
          "attributes": {
            "NORMAL": 7,
            "POSITION": 6
          },
          "indices": 8,
          "material": 2,
          "mode": 4
        }
      ]
    },
    {
      "name": "Cube_3",
      "primitives": [
        {
          "attributes": {
            "NORMAL": 10,
            "POSITION": 9
          },
          "indices": 11,
          "material": 3,
          "mode": 4
        }
      ]
    },
    {
      "name": "Cube.002_0",
      "primitives": [
        {
          "attributes": {
            "NORMAL": 13,
            "POSITION": 12
          },
          "indices": 14,
          "material": 4,
          "mode": 4
        }
      ]
    }
  ],
  "nodes": [
    {
      "children": [
        1
      ],
      "name": "RootNode (gltf orientation matrix)",
      "rotation": [
        -0.70710678118654746,
        -0,
        -0,
        0.70710678118654757
      ]
    },
    {
      "children": [
        2
      ],
      "matrix": [
        -1,
        0,
        0,
        0,
        0,
        -1,
        0,
        0,
        0,
        0,
        1,
        0,
        0.0015965104103088379,
        0.066660098731517792,
        0,
        1
      ],
      "name": "RootNode (model correction matrix)"
    },
    {
      "children": [
        3
      ],
      "name": "Root"
    },
    {
      "children": [
        4,
        5,
        6,
        7,
        8
      ],
      "matrix": [
        1,
        0,
        0,
        0,
        0,
        1,
        0,
        0,
        0,
        0,
        1,
        0,
        0,
        0,
        3,
        1
      ],
      "name": "Cube"
    },
    {
      "mesh": 0,
      "name": "Cube_0"
    },
    {
      "mesh": 1,
      "name": "Cube_1"
    },
    {
      "mesh": 2,
      "name": "Cube_2"
    },
    {
      "mesh": 3,
      "name": "Cube_3"
    },
    {
      "children": [
        9
      ],
      "matrix": [
        1,
        0,
        0,
        0,
        0,
        1,
        0,
        0,
        0,
        0,
        1,
        0,
        0,
        0,
        -2.0824199999999999,
        1
      ],
      "name": "Cube.002"
    },
    {
      "mesh": 4,
      "name": "Cube.002_0"
    }
  ],
  "scene": 0,
  "scenes": [
    {
      "name": "OSG_Scene",
      "nodes": [
        0
      ]
    }
  ]
}

